<svg xmlns="http://www.w3.org/2000/svg" width="312" height="216" viewBox="0 0 312 216">
<rect x="168" y="24" width="24" height="24" fill="#9edc5b" />
<rect x="144" y="48" width="24" height="24" fill="#9edc5b" />
<rect x="168" y="48" width="24" height="24" fill="#58b849" />
<rect x="192" y="48" width="24" height="24" fill="#9edc5b" />
<rect x="96" y="72" width="24" height="24" fill="#9edc5b" />
<rect x="168" y="72" width="24" height="24" fill="#52a742" />
<rect x="72" y="96" width="24" height="24" fill="#9edc5b" />
<rect x="96" y="96" width="24" height="24" fill="#58b849" />
<rect x="120" y="96" width="24" height="24" fill="#52a742" />
<rect x="144" y="96" width="24" height="24" fill="#52a742" />
<rect x="168" y="96" width="24" height="24" fill="#52a742" />
<rect x="216" y="96" width="24" height="24" fill="#9edc5b" />
<rect x="96" y="120" width="24" height="24" fill="#9edc5b" />
<rect x="168" y="120" width="24" height="24" fill="#52a742" />
<rect x="192" y="120" width="24" height="24" fill="#52a742" />
<rect x="216" y="120" width="24" height="24" fill="#58b849" />
<rect x="240" y="120" width="24" height="24" fill="#9edc5b" />
<rect x="144" y="144" width="24" height="24" fill="#52a742" />
<rect x="216" y="144" width="24" height="24" fill="#9edc5b" />
<rect x="120" y="168" width="24" height="24" fill="#52a742" />
</svg>